<mxfile host="app.diagrams.net" modified="2023-06-01T23:06:53.584Z" agent="Mozilla/5.0 (Windows NT 10.0; Win64; x64) AppleWebKit/537.36 (KHTML, like Gecko) Chrome/113.0.0.0 Safari/537.36 Edg/113.0.1774.57" etag="AuR9_wt6My67rEx8_Ij-" version="21.3.6" type="gitlab">
  <diagram name="Page-1" id="tRQshtHeYLVuAr1eCUB1">
    <mxGraphModel dx="2206" dy="1957" grid="1" gridSize="10" guides="1" tooltips="1" connect="1" arrows="1" fold="1" page="1" pageScale="1" pageWidth="827" pageHeight="1169" math="0" shadow="0">
      <root>
        <mxCell id="0" />
        <mxCell id="1" parent="0" />
        <mxCell id="DdG9BF0xfuivgEp0OiJ1-34" value="" style="rounded=0;whiteSpace=wrap;html=1;" vertex="1" parent="1">
          <mxGeometry x="-540" y="-510" width="830" height="270" as="geometry" />
        </mxCell>
        <mxCell id="DdG9BF0xfuivgEp0OiJ1-97" value="administrateur" style="shape=umlActor;verticalLabelPosition=bottom;verticalAlign=top;html=1;outlineConnect=0;" vertex="1" parent="1">
          <mxGeometry x="-620" y="-415.34000000000003" width="30" height="60" as="geometry" />
        </mxCell>
        <mxCell id="DdG9BF0xfuivgEp0OiJ1-100" value="S&#39;authentifier" style="ellipse;whiteSpace=wrap;html=1;" vertex="1" parent="1">
          <mxGeometry x="30" y="-400" width="200" height="80" as="geometry" />
        </mxCell>
        <mxCell id="DdG9BF0xfuivgEp0OiJ1-102" value="&amp;lt;&amp;lt;include&amp;gt;&amp;gt;" style="text;html=1;strokeColor=none;fillColor=none;align=center;verticalAlign=middle;whiteSpace=wrap;rounded=0;" vertex="1" parent="1">
          <mxGeometry x="-90" y="-380" width="40" height="20" as="geometry" />
        </mxCell>
        <mxCell id="DdG9BF0xfuivgEp0OiJ1-115" style="edgeStyle=orthogonalEdgeStyle;rounded=0;orthogonalLoop=1;jettySize=auto;html=1;dashed=1;endSize=10;endArrow=open;endFill=0;" edge="1" parent="1" source="DdG9BF0xfuivgEp0OiJ1-108" target="DdG9BF0xfuivgEp0OiJ1-100">
          <mxGeometry relative="1" as="geometry" />
        </mxCell>
        <mxCell id="DdG9BF0xfuivgEp0OiJ1-108" value="Consulter tableau de bord" style="ellipse;whiteSpace=wrap;html=1;" vertex="1" parent="1">
          <mxGeometry x="-413" y="-400" width="200" height="80" as="geometry" />
        </mxCell>
        <mxCell id="DdG9BF0xfuivgEp0OiJ1-109" value="" style="endArrow=none;html=1;rounded=0;entryX=0;entryY=0.5;entryDx=0;entryDy=0;" edge="1" parent="1" target="DdG9BF0xfuivgEp0OiJ1-108">
          <mxGeometry width="50" height="50" relative="1" as="geometry">
            <mxPoint x="-550" y="-400" as="sourcePoint" />
            <mxPoint x="70" y="-110" as="targetPoint" />
          </mxGeometry>
        </mxCell>
        <mxCell id="DdG9BF0xfuivgEp0OiJ1-111" value="Consulter tableau de bord" style="rounded=0;whiteSpace=wrap;html=1;" vertex="1" parent="1">
          <mxGeometry x="-540" y="-510" width="270" height="40" as="geometry" />
        </mxCell>
      </root>
    </mxGraphModel>
  </diagram>
</mxfile>
